<?xml version="1.0" standalone="no"?>
<!DOCTYPE svg PUBLIC "-//W3C//DTD SVG 20010904//EN"
 "http://www.w3.org/TR/2001/REC-SVG-20010904/DTD/svg10.dtd">
<svg version="1.0" xmlns="http://www.w3.org/2000/svg"
 width="512.000000pt" height="512.000000pt" viewBox="0 0 512.000000 512.000000"
 preserveAspectRatio="xMidYMid meet">

<g transform="translate(0.000000,512.000000) scale(0.100000,-0.100000)"
fill="#000000" stroke="none">
<path d="M440 5109 c-132 -19 -256 -93 -334 -199 -55 -74 -84 -149 -97 -249
-6 -49 -9 -810 -7 -2156 l3 -2080 22 -65 c55 -162 177 -282 337 -333 l71 -22
2125 0 2125 0 71 22 c163 52 285 174 337 338 l22 70 0 2125 0 2125 -22 71
c-51 160 -171 282 -333 337 l-65 22 -2100 1 c-1155 1 -2125 -2 -2155 -7z
m2134 -884 c179 -49 306 -167 369 -340 29 -82 53 -226 63 -377 l7 -108 85 91
c98 104 180 165 284 213 237 110 531 79 686 -72 131 -128 189 -374 163 -691
-20 -241 -31 -294 -223 -1116 -61 -263 -36 -387 78 -387 70 0 211 110 459 358
101 101 185 176 200 180 56 14 86 -52 86 -189 1 -63 -5 -97 -24 -148 -86 -228
-299 -454 -567 -601 -172 -95 -401 -139 -552 -107 -207 44 -343 245 -323 479
11 138 37 252 145 650 175 640 214 864 179 1005 -40 157 -235 113 -416 -94
-180 -205 -350 -519 -457 -842 -88 -266 -130 -534 -108 -698 16 -121 15 -230
-3 -282 -23 -65 -90 -144 -164 -193 -98 -64 -150 -81 -255 -81 l-88 0 -43 47
c-50 55 -76 133 -83 251 -9 154 16 273 196 932 113 412 156 590 192 803 55
327 40 585 -41 677 -39 44 -84 58 -167 53 -204 -13 -397 -205 -577 -573 -91
-187 -159 -369 -236 -634 -61 -214 -129 -498 -129 -541 0 -14 11 -83 25 -155
63 -325 71 -461 35 -571 -32 -97 -86 -150 -214 -212 -136 -66 -202 -85 -281
-80 -139 9 -199 115 -212 373 -11 230 71 851 207 1560 91 476 112 615 105 699
-15 179 -76 276 -175 276 -48 0 -88 -21 -224 -118 -133 -96 -189 -118 -241
-94 -44 20 -56 110 -30 220 21 86 48 136 114 205 145 153 333 233 571 244 173
7 278 -19 377 -95 79 -60 142 -203 158 -357 14 -140 9 -137 69 -41 77 121 132
191 220 274 127 120 240 182 396 217 82 19 280 13 364 -10z"/>
</g>
</svg>
